<svg xmlns="http://www.w3.org/2000/svg" width="760" height="771" viewBox="0 0 760 771" preserveAspectRatio="xMidYMid meet" role="img" aria-label="Leonard's Freehold two-bedroom townhouse upper-level floor plan: two bedrooms, bathroom, hallway, and closets">
<defs><style>
    .fp{fill:#FFFFFF}
    .w{fill:none;stroke:#2C3E2D;stroke-width:7;stroke-linecap:butt}
    .wo{fill:none;stroke:#2C3E2D;stroke-width:10;stroke-linecap:butt}
    .d{fill:none;stroke:#7C9880;stroke-width:2.5;stroke-dasharray:5 6}
    .arc{fill:none;stroke:#5E7D63;stroke-width:3}
    .win{fill:none;stroke:#2C3E2D;stroke-width:2.5}
    .st{fill:none;stroke:#2C3E2D;stroke-width:2.5}
    .rm{fill:#22331F;font-family:'Helvetica Neue',Arial,sans-serif;font-size:25px;font-style:italic;text-anchor:middle}
    .cl{fill:#4A5C4D;font-family:'Helvetica Neue',Arial,sans-serif;font-size:18px;font-style:italic;text-anchor:middle}
    .sm{fill:#4A5C4D;font-family:'Helvetica Neue',Arial,sans-serif;font-size:14px;font-style:italic;text-anchor:middle}
  </style></defs>
<rect class="fp" x="29" y="17" width="706" height="732"/>
<path class="w" d="M304,116 V257 M304,260 V282 M304,360 V382 M427,32 V133 M427,160 V263 M577,385 V757 M310,136 H427 M406,262 H612 M709,262 H735 M27,383 H287 M310,383 H442 M546,383 H585 M576,615 H737"/>
<path class="arc" d="M713,262 V161 M612,262 A101,101 0 0 1 713,161"/>
<path class="arc" d="M304,363 H225 M304,284 A79,79 0 0 0 225,363"/>
<path class="arc" d="M540,383 V468 M455,383 A85,85 0 0 0 540,468"/>
<path class="d" d="M300,50 V119 M308,50 V119 M306,258 H393 M306,266 H393"/>
<path class="st" d="M577,388 V600 M735,388 V600 M577,409 H735 M577,436 H735 M577,461 H735 M577,489 H735 M577,514 H735 M577,542 H735 M577,567 H735 M577,594 H735"/>
<path class="st" d="M577,617 V749 M735,617 V749 M577,619 H735 M577,647 H735 M577,672 H735 M577,700 H735 M577,725 H735 M577,747 H735"/>
<path class="st" d="M735,219 V279 M735,219 V279"/>
<path class="wo" d="M29,17 H735 V749 H29 V17"/>
<text class="rm" x="165" y="200">Bedroom</text>
<text class="rm" x="566" y="150">Bathroom</text>
<text class="rm" x="295" y="562">Bedroom</text>
<text class="cl" x="492" y="338">Hallway</text>
<text class="sm" x="366" y="82">Closet</text>
<text class="sm" x="366" y="205">Closet</text>
<text class="sm" x="656" y="680">Closet</text>
</svg>