<svg xmlns="http://www.w3.org/2000/svg" width="760" height="1302" viewBox="0 0 760 1302" preserveAspectRatio="xMidYMid meet" role="img" aria-label="Leonard's Freehold townhouse main-level floor plan with kitchen/dining, living room, and a closet">
<defs><style>
    .fp{fill:#FFFFFF}
    .w{fill:none;stroke:#2C3E2D;stroke-width:7;stroke-linecap:butt}
    .wo{fill:none;stroke:#2C3E2D;stroke-width:10;stroke-linecap:butt}
    .d{fill:none;stroke:#7C9880;stroke-width:2.5;stroke-dasharray:5 6}
    .arc{fill:none;stroke:#5E7D63;stroke-width:3}
    .win{fill:none;stroke:#2C3E2D;stroke-width:2.5}
    .st{fill:none;stroke:#2C3E2D;stroke-width:2.5}
    .rm{fill:#22331F;font-family:'Helvetica Neue',Arial,sans-serif;font-size:25px;font-style:italic;text-anchor:middle}
    .cl{fill:#4A5C4D;font-family:'Helvetica Neue',Arial,sans-serif;font-size:18px;font-style:italic;text-anchor:middle}
    .sm{fill:#4A5C4D;font-family:'Helvetica Neue',Arial,sans-serif;font-size:14px;font-style:italic;text-anchor:middle}
  </style></defs>
<rect class="fp" x="27" y="31" width="701" height="1233"/>
<path class="w" d="M20,654 H462 M564,654 H725 M570,776 H729"/>
<path class="d" d="M478,650 H564 M478,658 H564 M565,684 V768 M573,684 V768"/>
<path class="arc" d="M105,31 V153 M105,153 A122,122 0 0 0 227,31"/>
<path class="win" d="M454,26 H574 M454,31 H574 M454,36 H574 M454,24 V38 M574,24 V38"/>
<path class="win" d="M108,1259 H227 M108,1264 H227 M108,1269 H227 M108,1257 V1271 M227,1257 V1271"/>
<path class="arc" d="M532,1264 V1141 M409,1264 A123,123 0 0 1 532,1141"/>
<path class="st" d="M727,662 V758 M569,679 H727 M569,712 H727 M569,743 H727"/>
<path class="st" d="M569,790 V1259 M727,790 V1259 M569,806 H727 M569,841 H727 M569,872 H727 M569,904 H727 M569,938 H727 M569,970 H727 M569,1002 H727 M569,1037 H727 M569,1068 H727 M569,1100 H727 M569,1135 H727 M569,1166 H727 M569,1200 H727 M569,1233 H727"/>
<path class="wo" d="M27,31 H105 M227,31 H454 M574,31 H728 V1264 H532 M409,1264 H227 M108,1264 H27 V31"/>
<text class="rm" x="340" y="360">Kitchen/Dining</text>
<text class="rm" x="285" y="960">Living Room</text>
<text class="sm" x="648" y="722">Closet</text>
</svg>