<svg xmlns="http://www.w3.org/2000/svg" width="1100" height="951" viewBox="0 0 1100 951" preserveAspectRatio="xMidYMid meet" role="img" aria-label="Leonard's Freehold three-bedroom upper-level floor plan with three bedrooms, a bathroom, hallway, and closets">
<defs><style>
    .fp{fill:#FFFFFF}
    .w{fill:none;stroke:#2C3E2D;stroke-width:7;stroke-linecap:butt}
    .wo{fill:none;stroke:#2C3E2D;stroke-width:10;stroke-linecap:butt}
    .d{fill:none;stroke:#7C9880;stroke-width:4;stroke-dasharray:5 6}
    .arc{fill:none;stroke:#5E7D63;stroke-width:3}
    .win{fill:none;stroke:#2C3E2D;stroke-width:2.5}
    .rm{fill:#22331F;font-family:'Helvetica Neue',Arial,sans-serif;font-size:25px;font-style:italic;text-anchor:middle}
    .cl{fill:#4A5C4D;font-family:'Helvetica Neue',Arial,sans-serif;font-size:18px;font-style:italic;text-anchor:middle}
    .sm{fill:#4A5C4D;font-family:'Helvetica Neue',Arial,sans-serif;font-size:14px;font-style:italic;text-anchor:middle}
  </style></defs>
<rect class="fp" x="21" y="19" width="1067" height="916"/>
<path class="w" d="M187,473 V556 M510,15 V42 M510,149 V353 M510,454 V473 M524,15 V41 M524,145 V233 M524,251 V317 M524,320 V353 M633,473 V932 M663,15 V331 M676,15 V317 M938,479 V506 M938,509 V539 M938,542 V571 M938,575 V604 M938,608 V637 M938,641 V703 M938,706 V736 M938,739 V768 M938,772 V801 M938,811 V832 M509,173 H677 M509,321 H542 M642,321 H928 M1050,321 H1085 M42,473 H115 M124,473 H156 M158,473 H506 M627,473 H788 M14,552 H189 M943,784 H1076"/>
<path class="d" d="M187,244 V260 M187,665 V686 M510,23 V45 M510,240 V267 M510,304 V320 M510,449 V475 M524,206 V232 M633,897 V939 M663,372 V388 M663,397 V418 M676,28 V49 M676,298 V320 M676,404 V418 M676,631 V655 M938,135 V152 M938,156 V173 M938,470 V508 M938,518 V534 M938,701 V773 M938,791 V830 M938,886 V939 M848,173 H862 M22,473 H44 M154,473 H173 M400,473 H414 M494,473 H512 M622,473 H638 M753,473 H769 M934,473 H948"/>
<path class="win" d="M155,14 H267 M155,19 H267 M155,24 H267 M155,12 V26 M267,12 V26"/>
<path class="win" d="M222,930 H342 M222,935 H342 M222,940 H342 M222,928 V942 M342,928 V942"/>
<path class="win" d="M724,930 H842 M724,935 H842 M724,940 H842 M724,928 V942 M842,928 V942"/>
<path class="wo" d="M21,19 H155 M267,19 H1088 V935 H842 M724,935 H342 M222,935 H21 V19"/>
<text class="rm" x="230" y="235">Bedroom</text>
<text class="rm" x="250" y="685">Bedroom</text>
<text class="rm" x="780" y="660">Bedroom</text>
<text class="rm" x="870" y="155">Bathroom</text>
<text class="cl" x="710" y="390">Hallway</text>
<text class="sm" x="580" y="90">Closet</text>
<text class="sm" x="580" y="245">Closet</text>
<text class="sm" x="110" y="525">Closet</text>
<text class="sm" x="1000" y="855">Closet</text>
</svg>