<svg xmlns="http://www.w3.org/2000/svg" width="1379" height="1172" viewBox="0 0 1379 1172" preserveAspectRatio="xMidYMid meet" role="img" aria-label="Leonard's Freehold three-bedroom townhouse upper-level floor plan: three bedrooms, bathroom, hallway, and closets">
<defs><style>
    .fp{fill:#FFFFFF}
    .w{fill:none;stroke:#2C3E2D;stroke-width:7;stroke-linecap:butt}
    .wo{fill:none;stroke:#2C3E2D;stroke-width:10;stroke-linecap:butt}
    .d{fill:none;stroke:#7C9880;stroke-width:2.5;stroke-dasharray:5 6}
    .arc{fill:none;stroke:#5E7D63;stroke-width:3}
    .win{fill:none;stroke:#2C3E2D;stroke-width:2.5}
    .st{fill:none;stroke:#2C3E2D;stroke-width:2.5}
    .rm{fill:#22331F;font-family:'Helvetica Neue',Arial,sans-serif;font-size:25px;font-style:italic;text-anchor:middle}
    .cl{fill:#4A5C4D;font-family:'Helvetica Neue',Arial,sans-serif;font-size:18px;font-style:italic;text-anchor:middle}
    .sm{fill:#4A5C4D;font-family:'Helvetica Neue',Arial,sans-serif;font-size:14px;font-style:italic;text-anchor:middle}
  </style></defs>
<rect class="fp" x="36" y="18" width="1318" height="1136"/>
<path class="w" d="M242,584 V684 M649,16 V54 M649,178 V391 M649,395 V433 M649,560 V584 M793,594 V1141 M838,17 V405 M1168,588 V626 M1168,629 V664 M1168,668 V706 M1168,710 V744 M1168,748 V787 M1168,790 V825 M1168,828 V867 M1168,871 V909 M1168,912 V948 M1168,951 V990 M1168,993 V1028 M640,213 H846 M640,402 H682 M801,402 H1152 M1308,402 H1351 M27,588 H44 M62,588 H651 M783,588 H986 M27,676 H245 M1172,968 H1344"/>
<path class="arc" d="M1311,402 V244 M1153,402 A158,158 0 0 1 1311,244"/>
<path class="arc" d="M649,562 H520 M649,433 A129,129 0 0 0 520,562"/>
<path class="arc" d="M787,588 V711 M664,588 A123,123 0 0 0 787,711"/>
<path class="arc" d="M1133,588 V733 M988,588 A145,145 0 0 0 1133,733"/>
<path class="d" d="M680,398 H785 M680,406 H785 M646,54 V178 M654,54 V178"/>
<path class="win" d="M203,13 H342 M203,18 H342 M203,23 H342 M203,11 V25 M342,11 V25"/>
<path class="win" d="M287,1149 H433 M287,1154 H433 M287,1159 H433 M287,1147 V1161 M433,1147 V1161"/>
<path class="win" d="M907,1149 H1049 M907,1154 H1049 M907,1159 H1049 M907,1147 V1161 M1049,1147 V1161"/>
<path class="st" d="M1168,583 V955 M1354,583 V955 M1168,585 H1354 M1168,627 H1354 M1168,665 H1354 M1168,707 H1354 M1168,746 H1354 M1168,788 H1354 M1168,826 H1354 M1168,868 H1354 M1168,910 H1354 M1168,949 H1354"/>
<path class="st" d="M1168,980 V1148 M1354,980 V1148 M1168,991 H1354 M1168,1029 H1354 M1168,1071 H1354 M1168,1110 H1354 M1168,1145 H1354"/>
<path class="wo" d="M36,18 H203 M342,18 H1354 V1154 H1049 M907,1154 H433 M287,1154 H36 V18"/>
<text class="rm" x="325" y="310">Bedroom</text>
<text class="rm" x="1100" y="190">Bathroom</text>
<text class="rm" x="400" y="900">Bedroom</text>
<text class="rm" x="977" y="905">Bedroom</text>
<text class="cl" x="835" y="500">Hallway</text>
<text class="sm" x="744" y="110">Closet</text>
<text class="sm" x="744" y="315">Closet</text>
<text class="sm" x="140" y="640">Closet</text>
<text class="sm" x="1258" y="1075">Closet</text>
</svg>